<mxfile host="Electron" modified="2024-06-02T13:13:01.432Z" agent="Mozilla/5.0 (Windows NT 10.0; Win64; x64) AppleWebKit/537.36 (KHTML, like Gecko) draw.io/24.4.13 Chrome/124.0.6367.207 Electron/30.0.6 Safari/537.36" etag="kixhNUlJxK8FrFULeZqP" version="24.4.13" type="device">
  <diagram name="Страница — 1" id="UMnAuK7bFQgup7M1rGl-">
    <mxGraphModel dx="883" dy="835" grid="1" gridSize="10" guides="1" tooltips="1" connect="1" arrows="1" fold="1" page="1" pageScale="1" pageWidth="827" pageHeight="1169" math="0" shadow="0">
      <root>
        <mxCell id="0" />
        <mxCell id="1" parent="0" />
        <mxCell id="jzf92Ewc1WR81363NSRH-4" value="" style="edgeStyle=orthogonalEdgeStyle;rounded=0;orthogonalLoop=1;jettySize=auto;html=1;" edge="1" parent="1" source="jzf92Ewc1WR81363NSRH-1" target="jzf92Ewc1WR81363NSRH-3">
          <mxGeometry relative="1" as="geometry" />
        </mxCell>
        <mxCell id="jzf92Ewc1WR81363NSRH-1" value="Start" style="ellipse;whiteSpace=wrap;html=1;" vertex="1" parent="1">
          <mxGeometry x="340" y="10" width="120" height="40" as="geometry" />
        </mxCell>
        <mxCell id="jzf92Ewc1WR81363NSRH-6" value="" style="edgeStyle=orthogonalEdgeStyle;rounded=0;orthogonalLoop=1;jettySize=auto;html=1;" edge="1" parent="1" source="jzf92Ewc1WR81363NSRH-3" target="jzf92Ewc1WR81363NSRH-5">
          <mxGeometry relative="1" as="geometry" />
        </mxCell>
        <mxCell id="jzf92Ewc1WR81363NSRH-3" value="string[ ] inputArray = new string [ n ];" style="shape=parallelogram;perimeter=parallelogramPerimeter;whiteSpace=wrap;html=1;fixedSize=1;" vertex="1" parent="1">
          <mxGeometry x="160" y="70" width="480" height="50" as="geometry" />
        </mxCell>
        <mxCell id="jzf92Ewc1WR81363NSRH-8" value="" style="edgeStyle=orthogonalEdgeStyle;rounded=0;orthogonalLoop=1;jettySize=auto;html=1;" edge="1" parent="1" source="jzf92Ewc1WR81363NSRH-5" target="jzf92Ewc1WR81363NSRH-7">
          <mxGeometry relative="1" as="geometry" />
        </mxCell>
        <mxCell id="jzf92Ewc1WR81363NSRH-5" value="i = 0; inputArray[ i ];&amp;nbsp;" style="shape=hexagon;perimeter=hexagonPerimeter2;whiteSpace=wrap;html=1;fixedSize=1;" vertex="1" parent="1">
          <mxGeometry x="200" y="150" width="400" height="50" as="geometry" />
        </mxCell>
        <mxCell id="jzf92Ewc1WR81363NSRH-11" value="yes" style="edgeStyle=orthogonalEdgeStyle;rounded=0;orthogonalLoop=1;jettySize=auto;html=1;" edge="1" parent="1" source="jzf92Ewc1WR81363NSRH-7" target="jzf92Ewc1WR81363NSRH-9">
          <mxGeometry relative="1" as="geometry" />
        </mxCell>
        <mxCell id="jzf92Ewc1WR81363NSRH-13" value="No" style="edgeStyle=orthogonalEdgeStyle;rounded=0;orthogonalLoop=1;jettySize=auto;html=1;" edge="1" parent="1" source="jzf92Ewc1WR81363NSRH-7" target="jzf92Ewc1WR81363NSRH-12">
          <mxGeometry relative="1" as="geometry" />
        </mxCell>
        <mxCell id="jzf92Ewc1WR81363NSRH-7" value="i &amp;lt; n" style="rhombus;whiteSpace=wrap;html=1;" vertex="1" parent="1">
          <mxGeometry x="260" y="220" width="280" height="70" as="geometry" />
        </mxCell>
        <mxCell id="jzf92Ewc1WR81363NSRH-10" style="edgeStyle=orthogonalEdgeStyle;rounded=0;orthogonalLoop=1;jettySize=auto;html=1;entryX=0;entryY=0.5;entryDx=0;entryDy=0;" edge="1" parent="1" source="jzf92Ewc1WR81363NSRH-9" target="jzf92Ewc1WR81363NSRH-5">
          <mxGeometry relative="1" as="geometry" />
        </mxCell>
        <mxCell id="jzf92Ewc1WR81363NSRH-9" value="i = i +1" style="rounded=0;whiteSpace=wrap;html=1;" vertex="1" parent="1">
          <mxGeometry x="80" y="230" width="120" height="50" as="geometry" />
        </mxCell>
        <mxCell id="jzf92Ewc1WR81363NSRH-15" style="edgeStyle=orthogonalEdgeStyle;rounded=0;orthogonalLoop=1;jettySize=auto;html=1;entryX=0;entryY=0.5;entryDx=0;entryDy=0;" edge="1" parent="1" source="jzf92Ewc1WR81363NSRH-12" target="jzf92Ewc1WR81363NSRH-5">
          <mxGeometry relative="1" as="geometry">
            <Array as="points">
              <mxPoint x="30" y="345" />
              <mxPoint x="30" y="160" />
              <mxPoint x="200" y="160" />
            </Array>
          </mxGeometry>
        </mxCell>
        <mxCell id="jzf92Ewc1WR81363NSRH-22" value="" style="edgeStyle=orthogonalEdgeStyle;rounded=0;orthogonalLoop=1;jettySize=auto;html=1;" edge="1" parent="1" source="jzf92Ewc1WR81363NSRH-12" target="jzf92Ewc1WR81363NSRH-17">
          <mxGeometry relative="1" as="geometry" />
        </mxCell>
        <mxCell id="jzf92Ewc1WR81363NSRH-12" value="string [ ] newArray" style="rounded=0;whiteSpace=wrap;html=1;" vertex="1" parent="1">
          <mxGeometry x="257" y="320" width="280" height="50" as="geometry" />
        </mxCell>
        <mxCell id="jzf92Ewc1WR81363NSRH-21" value="" style="edgeStyle=orthogonalEdgeStyle;rounded=0;orthogonalLoop=1;jettySize=auto;html=1;" edge="1" parent="1" source="jzf92Ewc1WR81363NSRH-17" target="jzf92Ewc1WR81363NSRH-19">
          <mxGeometry relative="1" as="geometry" />
        </mxCell>
        <mxCell id="jzf92Ewc1WR81363NSRH-17" value="int count = 0; count &amp;lt; inputArray.Lenght;&amp;nbsp;" style="shape=hexagon;perimeter=hexagonPerimeter2;whiteSpace=wrap;html=1;fixedSize=1;" vertex="1" parent="1">
          <mxGeometry x="167" y="420" width="460" height="50" as="geometry" />
        </mxCell>
        <mxCell id="jzf92Ewc1WR81363NSRH-25" value="Yes" style="edgeStyle=orthogonalEdgeStyle;rounded=0;orthogonalLoop=1;jettySize=auto;html=1;" edge="1" parent="1" source="jzf92Ewc1WR81363NSRH-19" target="jzf92Ewc1WR81363NSRH-24">
          <mxGeometry relative="1" as="geometry" />
        </mxCell>
        <mxCell id="jzf92Ewc1WR81363NSRH-28" value="No" style="edgeStyle=orthogonalEdgeStyle;rounded=0;orthogonalLoop=1;jettySize=auto;html=1;" edge="1" parent="1" source="jzf92Ewc1WR81363NSRH-19" target="jzf92Ewc1WR81363NSRH-26">
          <mxGeometry relative="1" as="geometry" />
        </mxCell>
        <mxCell id="jzf92Ewc1WR81363NSRH-19" value="inputArray[ i ].Lenght &amp;lt;= 3" style="rhombus;whiteSpace=wrap;html=1;" vertex="1" parent="1">
          <mxGeometry x="267" y="500" width="260" height="80" as="geometry" />
        </mxCell>
        <mxCell id="jzf92Ewc1WR81363NSRH-31" value="" style="edgeStyle=orthogonalEdgeStyle;rounded=0;orthogonalLoop=1;jettySize=auto;html=1;" edge="1" parent="1" source="jzf92Ewc1WR81363NSRH-24" target="jzf92Ewc1WR81363NSRH-29">
          <mxGeometry relative="1" as="geometry" />
        </mxCell>
        <mxCell id="jzf92Ewc1WR81363NSRH-24" value="string[ ] newArray" style="rounded=0;whiteSpace=wrap;html=1;" vertex="1" parent="1">
          <mxGeometry x="237" y="610" width="320" height="50" as="geometry" />
        </mxCell>
        <mxCell id="jzf92Ewc1WR81363NSRH-27" style="edgeStyle=orthogonalEdgeStyle;rounded=0;orthogonalLoop=1;jettySize=auto;html=1;entryX=0;entryY=0.5;entryDx=0;entryDy=0;" edge="1" parent="1" source="jzf92Ewc1WR81363NSRH-26" target="jzf92Ewc1WR81363NSRH-17">
          <mxGeometry relative="1" as="geometry" />
        </mxCell>
        <mxCell id="jzf92Ewc1WR81363NSRH-26" value="count ++" style="rounded=0;whiteSpace=wrap;html=1;" vertex="1" parent="1">
          <mxGeometry x="80" y="520" width="120" height="40" as="geometry" />
        </mxCell>
        <mxCell id="jzf92Ewc1WR81363NSRH-32" value="" style="edgeStyle=orthogonalEdgeStyle;rounded=0;orthogonalLoop=1;jettySize=auto;html=1;" edge="1" parent="1" source="jzf92Ewc1WR81363NSRH-29" target="jzf92Ewc1WR81363NSRH-30">
          <mxGeometry relative="1" as="geometry" />
        </mxCell>
        <mxCell id="jzf92Ewc1WR81363NSRH-29" value="index = 0; index &amp;lt; inputArray.Length;" style="shape=hexagon;perimeter=hexagonPerimeter2;whiteSpace=wrap;html=1;fixedSize=1;" vertex="1" parent="1">
          <mxGeometry x="172" y="700" width="450" height="50" as="geometry" />
        </mxCell>
        <mxCell id="jzf92Ewc1WR81363NSRH-35" value="No" style="edgeStyle=orthogonalEdgeStyle;rounded=0;orthogonalLoop=1;jettySize=auto;html=1;" edge="1" parent="1" source="jzf92Ewc1WR81363NSRH-30" target="jzf92Ewc1WR81363NSRH-33">
          <mxGeometry relative="1" as="geometry" />
        </mxCell>
        <mxCell id="jzf92Ewc1WR81363NSRH-37" value="Yes" style="edgeStyle=orthogonalEdgeStyle;rounded=0;orthogonalLoop=1;jettySize=auto;html=1;" edge="1" parent="1" source="jzf92Ewc1WR81363NSRH-30" target="jzf92Ewc1WR81363NSRH-36">
          <mxGeometry relative="1" as="geometry" />
        </mxCell>
        <mxCell id="jzf92Ewc1WR81363NSRH-30" value="inputarray [ i ].Length &amp;lt;=3;" style="rhombus;whiteSpace=wrap;html=1;" vertex="1" parent="1">
          <mxGeometry x="267" y="780" width="260" height="80" as="geometry" />
        </mxCell>
        <mxCell id="jzf92Ewc1WR81363NSRH-34" style="edgeStyle=orthogonalEdgeStyle;rounded=0;orthogonalLoop=1;jettySize=auto;html=1;" edge="1" parent="1">
          <mxGeometry relative="1" as="geometry">
            <mxPoint x="172" y="730" as="targetPoint" />
            <mxPoint x="142" y="810" as="sourcePoint" />
            <Array as="points">
              <mxPoint x="142.5" y="811" />
              <mxPoint x="120.5" y="811" />
              <mxPoint x="120.5" y="730" />
            </Array>
          </mxGeometry>
        </mxCell>
        <mxCell id="jzf92Ewc1WR81363NSRH-33" value="index ++" style="rounded=0;whiteSpace=wrap;html=1;" vertex="1" parent="1">
          <mxGeometry x="80" y="800" width="120" height="40" as="geometry" />
        </mxCell>
        <mxCell id="jzf92Ewc1WR81363NSRH-39" value="" style="edgeStyle=orthogonalEdgeStyle;rounded=0;orthogonalLoop=1;jettySize=auto;html=1;" edge="1" parent="1" source="jzf92Ewc1WR81363NSRH-36" target="jzf92Ewc1WR81363NSRH-38">
          <mxGeometry relative="1" as="geometry" />
        </mxCell>
        <mxCell id="jzf92Ewc1WR81363NSRH-36" value="newArray" style="rounded=0;whiteSpace=wrap;html=1;" vertex="1" parent="1">
          <mxGeometry x="237" y="890" width="320" height="50" as="geometry" />
        </mxCell>
        <mxCell id="jzf92Ewc1WR81363NSRH-41" value="" style="edgeStyle=orthogonalEdgeStyle;rounded=0;orthogonalLoop=1;jettySize=auto;html=1;" edge="1" parent="1" source="jzf92Ewc1WR81363NSRH-38" target="jzf92Ewc1WR81363NSRH-40">
          <mxGeometry relative="1" as="geometry" />
        </mxCell>
        <mxCell id="jzf92Ewc1WR81363NSRH-38" value="print newArray" style="shape=document;whiteSpace=wrap;html=1;boundedLbl=1;" vertex="1" parent="1">
          <mxGeometry x="312" y="990" width="170" height="50" as="geometry" />
        </mxCell>
        <mxCell id="jzf92Ewc1WR81363NSRH-40" value="End" style="ellipse;whiteSpace=wrap;html=1;aspect=fixed;" vertex="1" parent="1">
          <mxGeometry x="372" y="1080" width="50" height="50" as="geometry" />
        </mxCell>
      </root>
    </mxGraphModel>
  </diagram>
</mxfile>
